<svg width="73" height="70" viewBox="0 0 73 70" fill="none" xmlns="http://www.w3.org/2000/svg">
<path d="M31.026 8.07521C36.3991 6.6355 42.0784 6.82142 47.3458 8.60946C52.6132 10.3975 57.2321 13.7073 60.6184 18.1205C64.0047 22.5336 66.0063 27.8517 66.3701 33.4024C66.7339 38.9531 65.4436 44.487 62.6623 49.3044C59.881 54.1217 55.7336 58.0061 50.7447 60.4664C45.7557 62.9267 40.1493 63.8523 34.6343 63.1263C29.1193 62.4002 23.9434 60.055 19.7612 56.3874C15.579 52.7197 12.5784 47.8942 11.1387 42.5212C9.13223 34.9188 10.1424 26.835 13.958 19.9602L18.952 11.3104" stroke="black" stroke-width="6.25" stroke-linecap="round" stroke-linejoin="round"/>
<path d="M3.85938 15.3545L18.952 11.3104L22.996 26.403" stroke="black" stroke-width="6.25" stroke-linecap="round" stroke-linejoin="round"/>
</svg>
